<mxfile host="app.diagrams.net" agent="Mozilla/5.0 (Windows NT 10.0; Win64; x64) AppleWebKit/537.36 (KHTML, like Gecko) Chrome/126.0.0.0 Safari/537.36" version="24.7.5">
  <diagram id="C5RBs43oDa-KdzZeNtuy" name="Page-1">
    <mxGraphModel dx="2868" dy="1568" grid="1" gridSize="10" guides="1" tooltips="1" connect="1" arrows="1" fold="1" page="1" pageScale="1" pageWidth="827" pageHeight="1169" math="0" shadow="0">
      <root>
        <mxCell id="WIyWlLk6GJQsqaUBKTNV-0" />
        <mxCell id="WIyWlLk6GJQsqaUBKTNV-1" parent="WIyWlLk6GJQsqaUBKTNV-0" />
        <mxCell id="c8VAI_UcvX4g3IYW-U81-0" value="App.java" style="swimlane;fontStyle=2;align=center;verticalAlign=top;childLayout=stackLayout;horizontal=1;startSize=26;horizontalStack=0;resizeParent=1;resizeLast=0;collapsible=1;marginBottom=0;rounded=0;shadow=0;strokeWidth=1;" vertex="1" parent="WIyWlLk6GJQsqaUBKTNV-1">
          <mxGeometry x="978" y="20" width="350" height="112" as="geometry">
            <mxRectangle x="230" y="140" width="160" height="26" as="alternateBounds" />
          </mxGeometry>
        </mxCell>
        <mxCell id="c8VAI_UcvX4g3IYW-U81-1" value="Main&lt;Long, Long&gt; main = new Main&lt;&gt;(Long.class, Long.class);" style="text;align=left;verticalAlign=top;spacingLeft=4;spacingRight=4;overflow=hidden;rotatable=0;points=[[0,0.5],[1,0.5]];portConstraint=eastwest;" vertex="1" parent="c8VAI_UcvX4g3IYW-U81-0">
          <mxGeometry y="26" width="350" height="26" as="geometry" />
        </mxCell>
        <mxCell id="c8VAI_UcvX4g3IYW-U81-2" value="main.calculatorApp();" style="text;align=left;verticalAlign=top;spacingLeft=4;spacingRight=4;overflow=hidden;rotatable=0;points=[[0,0.5],[1,0.5]];portConstraint=eastwest;rounded=0;shadow=0;html=0;" vertex="1" parent="c8VAI_UcvX4g3IYW-U81-0">
          <mxGeometry y="52" width="350" height="26" as="geometry" />
        </mxCell>
        <mxCell id="c8VAI_UcvX4g3IYW-U81-3" value="" style="line;html=1;strokeWidth=1;align=left;verticalAlign=middle;spacingTop=-1;spacingLeft=3;spacingRight=3;rotatable=0;labelPosition=right;points=[];portConstraint=eastwest;" vertex="1" parent="c8VAI_UcvX4g3IYW-U81-0">
          <mxGeometry y="78" width="350" height="8" as="geometry" />
        </mxCell>
        <mxCell id="c8VAI_UcvX4g3IYW-U81-4" value="//진입점" style="text;align=left;verticalAlign=top;spacingLeft=4;spacingRight=4;overflow=hidden;rotatable=0;points=[[0,0.5],[1,0.5]];portConstraint=eastwest;" vertex="1" parent="c8VAI_UcvX4g3IYW-U81-0">
          <mxGeometry y="86" width="350" height="26" as="geometry" />
        </mxCell>
        <mxCell id="c8VAI_UcvX4g3IYW-U81-5" style="edgeStyle=orthogonalEdgeStyle;rounded=0;orthogonalLoop=1;jettySize=auto;html=1;exitX=0.5;exitY=1;exitDx=0;exitDy=0;entryX=0.5;entryY=0;entryDx=0;entryDy=0;" edge="1" parent="WIyWlLk6GJQsqaUBKTNV-1" source="c8VAI_UcvX4g3IYW-U81-6" target="c8VAI_UcvX4g3IYW-U81-12">
          <mxGeometry relative="1" as="geometry">
            <mxPoint x="1153" y="310" as="targetPoint" />
          </mxGeometry>
        </mxCell>
        <mxCell id="c8VAI_UcvX4g3IYW-U81-6" value="Main.java" style="swimlane;fontStyle=0;align=center;verticalAlign=top;childLayout=stackLayout;horizontal=1;startSize=26;horizontalStack=0;resizeParent=1;resizeLast=0;collapsible=1;marginBottom=0;rounded=0;shadow=0;strokeWidth=1;" vertex="1" parent="WIyWlLk6GJQsqaUBKTNV-1">
          <mxGeometry x="978" y="170" width="350" height="60" as="geometry">
            <mxRectangle x="340" y="380" width="170" height="26" as="alternateBounds" />
          </mxGeometry>
        </mxCell>
        <mxCell id="c8VAI_UcvX4g3IYW-U81-7" value="사칙연산,원의넓이 수행" style="text;align=left;verticalAlign=top;spacingLeft=4;spacingRight=4;overflow=hidden;rotatable=0;points=[[0,0.5],[1,0.5]];portConstraint=eastwest;" vertex="1" parent="c8VAI_UcvX4g3IYW-U81-6">
          <mxGeometry y="26" width="350" height="26" as="geometry" />
        </mxCell>
        <mxCell id="c8VAI_UcvX4g3IYW-U81-8" style="edgeStyle=orthogonalEdgeStyle;rounded=0;orthogonalLoop=1;jettySize=auto;html=1;entryX=0.5;entryY=0;entryDx=0;entryDy=0;" edge="1" parent="WIyWlLk6GJQsqaUBKTNV-1" source="c8VAI_UcvX4g3IYW-U81-9" target="c8VAI_UcvX4g3IYW-U81-20">
          <mxGeometry relative="1" as="geometry" />
        </mxCell>
        <mxCell id="c8VAI_UcvX4g3IYW-U81-9" value="// 사칙연산과, 원의넓이를 수행하는 진입점" style="rounded=0;whiteSpace=wrap;html=1;align=left;" vertex="1" parent="WIyWlLk6GJQsqaUBKTNV-1">
          <mxGeometry x="978" y="230" width="350" height="30" as="geometry" />
        </mxCell>
        <mxCell id="c8VAI_UcvX4g3IYW-U81-10" style="edgeStyle=orthogonalEdgeStyle;rounded=0;orthogonalLoop=1;jettySize=auto;html=1;exitX=0.501;exitY=1.015;exitDx=0;exitDy=0;exitPerimeter=0;" edge="1" parent="WIyWlLk6GJQsqaUBKTNV-1" source="c8VAI_UcvX4g3IYW-U81-4">
          <mxGeometry relative="1" as="geometry">
            <mxPoint x="1153" y="170" as="targetPoint" />
            <mxPoint x="1153" y="140" as="sourcePoint" />
          </mxGeometry>
        </mxCell>
        <mxCell id="c8VAI_UcvX4g3IYW-U81-11" value="" style="edgeStyle=orthogonalEdgeStyle;rounded=0;orthogonalLoop=1;jettySize=auto;html=1;exitX=1;exitY=0.5;exitDx=0;exitDy=0;" edge="1" parent="WIyWlLk6GJQsqaUBKTNV-1" source="c8VAI_UcvX4g3IYW-U81-15" target="c8VAI_UcvX4g3IYW-U81-21">
          <mxGeometry relative="1" as="geometry" />
        </mxCell>
        <mxCell id="c8VAI_UcvX4g3IYW-U81-12" value="&lt;div style=&quot;&quot;&gt;&lt;pre style=&quot;&quot;&gt;&lt;font face=&quot;Helvetica&quot;&gt;&lt;span style=&quot;white-space-collapse: collapse;&quot;&gt;ConvertInput.java&lt;/span&gt;&lt;/font&gt;&lt;/pre&gt;&lt;/div&gt;" style="rounded=0;whiteSpace=wrap;html=1;" vertex="1" parent="WIyWlLk6GJQsqaUBKTNV-1">
          <mxGeometry x="776" y="330" width="200" height="30" as="geometry" />
        </mxCell>
        <mxCell id="c8VAI_UcvX4g3IYW-U81-13" value="&lt;pre&gt;&lt;div style=&quot;background-color:#011627;color:#d6deeb&quot;&gt;&lt;pre style=&quot;font-size: 9.8pt;&quot;&gt;&lt;pre style=&quot;color: rgb(0, 0, 0); font-size: 12px; background-color: rgb(251, 251, 251);&quot;&gt;&lt;font face=&quot;Helvetica&quot;&gt;&lt;span style=&quot;white-space-collapse: collapse;&quot;&gt;OperatorType.java&lt;/span&gt;&lt;/font&gt;&lt;/pre&gt;&lt;/pre&gt;&lt;/div&gt;&lt;/pre&gt;" style="rounded=0;whiteSpace=wrap;html=1;" vertex="1" parent="WIyWlLk6GJQsqaUBKTNV-1">
          <mxGeometry x="1328" y="330" width="198" height="30" as="geometry" />
        </mxCell>
        <mxCell id="c8VAI_UcvX4g3IYW-U81-14" style="edgeStyle=orthogonalEdgeStyle;rounded=0;orthogonalLoop=1;jettySize=auto;html=1;entryX=0.534;entryY=-0.05;entryDx=0;entryDy=0;entryPerimeter=0;" edge="1" parent="WIyWlLk6GJQsqaUBKTNV-1" target="c8VAI_UcvX4g3IYW-U81-13">
          <mxGeometry relative="1" as="geometry">
            <mxPoint x="1166" y="440" as="targetPoint" />
            <mxPoint x="1156" y="280" as="sourcePoint" />
          </mxGeometry>
        </mxCell>
        <mxCell id="c8VAI_UcvX4g3IYW-U81-15" value="input으로 들어온 (숫자 x, 숫자 y)값의 (제네릭 타입) 확인후, 적절한 타입을 돌려준다" style="rounded=0;whiteSpace=wrap;html=1;align=left;" vertex="1" parent="WIyWlLk6GJQsqaUBKTNV-1">
          <mxGeometry x="776" y="360" width="200" height="50" as="geometry" />
        </mxCell>
        <mxCell id="c8VAI_UcvX4g3IYW-U81-16" value="// 피연산자 형변환" style="rounded=0;whiteSpace=wrap;html=1;align=left;" vertex="1" parent="WIyWlLk6GJQsqaUBKTNV-1">
          <mxGeometry x="776" y="410" width="200" height="20" as="geometry" />
        </mxCell>
        <mxCell id="c8VAI_UcvX4g3IYW-U81-17" value="" style="edgeStyle=orthogonalEdgeStyle;rounded=0;orthogonalLoop=1;jettySize=auto;html=1;entryX=1;entryY=0.5;entryDx=0;entryDy=0;" edge="1" parent="WIyWlLk6GJQsqaUBKTNV-1" source="c8VAI_UcvX4g3IYW-U81-18" target="c8VAI_UcvX4g3IYW-U81-21">
          <mxGeometry relative="1" as="geometry" />
        </mxCell>
        <mxCell id="c8VAI_UcvX4g3IYW-U81-18" value="input으로 들어온 (연산자)값을 확인후, +,-,*,/,% 중 하나라면 그에 맞는 연산자를 돌려줌" style="rounded=0;whiteSpace=wrap;html=1;align=left;" vertex="1" parent="WIyWlLk6GJQsqaUBKTNV-1">
          <mxGeometry x="1328" y="360" width="198" height="50" as="geometry" />
        </mxCell>
        <mxCell id="c8VAI_UcvX4g3IYW-U81-19" value="// 연산자 형변환" style="rounded=0;whiteSpace=wrap;html=1;align=left;" vertex="1" parent="WIyWlLk6GJQsqaUBKTNV-1">
          <mxGeometry x="1328" y="410" width="198" height="20" as="geometry" />
        </mxCell>
        <mxCell id="c8VAI_UcvX4g3IYW-U81-20" value="&lt;div style=&quot;&quot;&gt;&lt;pre style=&quot;&quot;&gt;&lt;font face=&quot;Helvetica&quot;&gt;&lt;span style=&quot;white-space-collapse: collapse;&quot;&gt;Exceoptions&lt;/span&gt;&lt;/font&gt;&lt;/pre&gt;&lt;/div&gt;" style="rounded=0;whiteSpace=wrap;html=1;" vertex="1" parent="WIyWlLk6GJQsqaUBKTNV-1">
          <mxGeometry x="1053" y="330" width="200" height="30" as="geometry" />
        </mxCell>
        <mxCell id="c8VAI_UcvX4g3IYW-U81-21" value="1.&amp;nbsp;&lt;span style=&quot;text-align: center; background-color: initial;&quot;&gt;ConvertInput 오류시 :&amp;nbsp; HandleInputMixMatchException&amp;nbsp;&lt;br&gt;&lt;br&gt;2. OperatorType 오류시 :&lt;br&gt;HandleOperatorMisMatchException&lt;br&gt;&lt;br&gt;3. 사칙연산,원의넓이 input 오류시 :&lt;br&gt;HandleInputMisMatchException&lt;br&gt;&lt;/span&gt;" style="rounded=0;whiteSpace=wrap;html=1;align=left;" vertex="1" parent="WIyWlLk6GJQsqaUBKTNV-1">
          <mxGeometry x="1053" y="360" width="200" height="120" as="geometry" />
        </mxCell>
        <mxCell id="c8VAI_UcvX4g3IYW-U81-22" value="// exception 처리" style="rounded=0;whiteSpace=wrap;html=1;align=left;" vertex="1" parent="WIyWlLk6GJQsqaUBKTNV-1">
          <mxGeometry x="1053" y="480" width="200" height="30" as="geometry" />
        </mxCell>
        <mxCell id="c8VAI_UcvX4g3IYW-U81-23" value="Main.java" style="swimlane;fontStyle=0;align=center;verticalAlign=top;childLayout=stackLayout;horizontal=1;startSize=26;horizontalStack=0;resizeParent=1;resizeLast=0;collapsible=1;marginBottom=0;rounded=0;shadow=0;strokeWidth=1;" vertex="1" parent="WIyWlLk6GJQsqaUBKTNV-1">
          <mxGeometry x="975" y="530" width="350" height="60" as="geometry">
            <mxRectangle x="340" y="380" width="170" height="26" as="alternateBounds" />
          </mxGeometry>
        </mxCell>
        <mxCell id="c8VAI_UcvX4g3IYW-U81-24" value="사칙연산,원의넓이 수행" style="text;align=left;verticalAlign=top;spacingLeft=4;spacingRight=4;overflow=hidden;rotatable=0;points=[[0,0.5],[1,0.5]];portConstraint=eastwest;" vertex="1" parent="c8VAI_UcvX4g3IYW-U81-23">
          <mxGeometry y="26" width="350" height="26" as="geometry" />
        </mxCell>
        <mxCell id="c8VAI_UcvX4g3IYW-U81-25" value="// 사칙연산과, 원의넓이를 수행하는 진입점" style="rounded=0;whiteSpace=wrap;html=1;align=left;" vertex="1" parent="WIyWlLk6GJQsqaUBKTNV-1">
          <mxGeometry x="975" y="590" width="350" height="30" as="geometry" />
        </mxCell>
        <mxCell id="c8VAI_UcvX4g3IYW-U81-26" style="edgeStyle=orthogonalEdgeStyle;rounded=0;orthogonalLoop=1;jettySize=auto;html=1;entryX=0.003;entryY=0.769;entryDx=0;entryDy=0;entryPerimeter=0;" edge="1" parent="WIyWlLk6GJQsqaUBKTNV-1" source="c8VAI_UcvX4g3IYW-U81-16" target="c8VAI_UcvX4g3IYW-U81-24">
          <mxGeometry relative="1" as="geometry" />
        </mxCell>
        <mxCell id="c8VAI_UcvX4g3IYW-U81-27" style="edgeStyle=orthogonalEdgeStyle;rounded=0;orthogonalLoop=1;jettySize=auto;html=1;entryX=0.997;entryY=0.885;entryDx=0;entryDy=0;entryPerimeter=0;" edge="1" parent="WIyWlLk6GJQsqaUBKTNV-1" source="c8VAI_UcvX4g3IYW-U81-19" target="c8VAI_UcvX4g3IYW-U81-24">
          <mxGeometry relative="1" as="geometry" />
        </mxCell>
        <mxCell id="c8VAI_UcvX4g3IYW-U81-28" value="ArithmeticCalculator.java" style="swimlane;fontStyle=0;align=center;verticalAlign=top;childLayout=stackLayout;horizontal=1;startSize=26;horizontalStack=0;resizeParent=1;resizeLast=0;collapsible=1;marginBottom=0;rounded=0;shadow=0;strokeWidth=1;" vertex="1" parent="WIyWlLk6GJQsqaUBKTNV-1">
          <mxGeometry x="776" y="830" width="350" height="60" as="geometry">
            <mxRectangle x="340" y="380" width="170" height="26" as="alternateBounds" />
          </mxGeometry>
        </mxCell>
        <mxCell id="c8VAI_UcvX4g3IYW-U81-29" value="사칙연산 수행" style="text;align=left;verticalAlign=top;spacingLeft=4;spacingRight=4;overflow=hidden;rotatable=0;points=[[0,0.5],[1,0.5]];portConstraint=eastwest;" vertex="1" parent="c8VAI_UcvX4g3IYW-U81-28">
          <mxGeometry y="26" width="350" height="26" as="geometry" />
        </mxCell>
        <mxCell id="c8VAI_UcvX4g3IYW-U81-30" style="edgeStyle=orthogonalEdgeStyle;rounded=0;orthogonalLoop=1;jettySize=auto;html=1;" edge="1" parent="WIyWlLk6GJQsqaUBKTNV-1" source="c8VAI_UcvX4g3IYW-U81-31" target="c8VAI_UcvX4g3IYW-U81-36">
          <mxGeometry relative="1" as="geometry" />
        </mxCell>
        <mxCell id="c8VAI_UcvX4g3IYW-U81-31" value="// 사칙연산 수행 로직 진입점" style="rounded=0;whiteSpace=wrap;html=1;align=left;" vertex="1" parent="WIyWlLk6GJQsqaUBKTNV-1">
          <mxGeometry x="776" y="890" width="350" height="30" as="geometry" />
        </mxCell>
        <mxCell id="c8VAI_UcvX4g3IYW-U81-32" value="CircleCalculator.java" style="swimlane;fontStyle=0;align=center;verticalAlign=top;childLayout=stackLayout;horizontal=1;startSize=26;horizontalStack=0;resizeParent=1;resizeLast=0;collapsible=1;marginBottom=0;rounded=0;shadow=0;strokeWidth=1;" vertex="1" parent="WIyWlLk6GJQsqaUBKTNV-1">
          <mxGeometry x="1176" y="830" width="350" height="60" as="geometry">
            <mxRectangle x="340" y="380" width="170" height="26" as="alternateBounds" />
          </mxGeometry>
        </mxCell>
        <mxCell id="c8VAI_UcvX4g3IYW-U81-33" value="원의넓이 수행" style="text;align=left;verticalAlign=top;spacingLeft=4;spacingRight=4;overflow=hidden;rotatable=0;points=[[0,0.5],[1,0.5]];portConstraint=eastwest;" vertex="1" parent="c8VAI_UcvX4g3IYW-U81-32">
          <mxGeometry y="26" width="350" height="26" as="geometry" />
        </mxCell>
        <mxCell id="c8VAI_UcvX4g3IYW-U81-34" value="// 원의넓이 수행 로직 진입점" style="rounded=0;whiteSpace=wrap;html=1;align=left;" vertex="1" parent="WIyWlLk6GJQsqaUBKTNV-1">
          <mxGeometry x="1176" y="890" width="350" height="30" as="geometry" />
        </mxCell>
        <mxCell id="c8VAI_UcvX4g3IYW-U81-35" style="edgeStyle=orthogonalEdgeStyle;rounded=0;orthogonalLoop=1;jettySize=auto;html=1;exitX=0.5;exitY=1;exitDx=0;exitDy=0;" edge="1" parent="WIyWlLk6GJQsqaUBKTNV-1" source="c8VAI_UcvX4g3IYW-U81-22" target="c8VAI_UcvX4g3IYW-U81-22">
          <mxGeometry relative="1" as="geometry" />
        </mxCell>
        <mxCell id="c8VAI_UcvX4g3IYW-U81-36" value="CalculatorFactory.java" style="swimlane;fontStyle=0;align=center;verticalAlign=top;childLayout=stackLayout;horizontal=1;startSize=26;horizontalStack=0;resizeParent=1;resizeLast=0;collapsible=1;marginBottom=0;rounded=0;shadow=0;strokeWidth=1;" vertex="1" parent="WIyWlLk6GJQsqaUBKTNV-1">
          <mxGeometry x="996" y="1010" width="350" height="60" as="geometry">
            <mxRectangle x="340" y="380" width="170" height="26" as="alternateBounds" />
          </mxGeometry>
        </mxCell>
        <mxCell id="c8VAI_UcvX4g3IYW-U81-37" value="5가지의 사칙연산 묶어둠" style="text;align=left;verticalAlign=top;spacingLeft=4;spacingRight=4;overflow=hidden;rotatable=0;points=[[0,0.5],[1,0.5]];portConstraint=eastwest;" vertex="1" parent="c8VAI_UcvX4g3IYW-U81-36">
          <mxGeometry y="26" width="350" height="26" as="geometry" />
        </mxCell>
        <mxCell id="c8VAI_UcvX4g3IYW-U81-38" style="edgeStyle=orthogonalEdgeStyle;rounded=0;orthogonalLoop=1;jettySize=auto;html=1;entryX=0.486;entryY=0.01;entryDx=0;entryDy=0;entryPerimeter=0;" edge="1" parent="WIyWlLk6GJQsqaUBKTNV-1" source="c8VAI_UcvX4g3IYW-U81-41" target="c8VAI_UcvX4g3IYW-U81-52">
          <mxGeometry relative="1" as="geometry">
            <mxPoint x="1175" y="1250" as="targetPoint" />
          </mxGeometry>
        </mxCell>
        <mxCell id="c8VAI_UcvX4g3IYW-U81-39" style="edgeStyle=orthogonalEdgeStyle;rounded=0;orthogonalLoop=1;jettySize=auto;html=1;entryX=0.5;entryY=0;entryDx=0;entryDy=0;" edge="1" parent="WIyWlLk6GJQsqaUBKTNV-1" source="c8VAI_UcvX4g3IYW-U81-41" target="c8VAI_UcvX4g3IYW-U81-42">
          <mxGeometry relative="1" as="geometry">
            <Array as="points">
              <mxPoint x="1171" y="1170" />
              <mxPoint x="415" y="1170" />
            </Array>
          </mxGeometry>
        </mxCell>
        <mxCell id="c8VAI_UcvX4g3IYW-U81-40" style="edgeStyle=orthogonalEdgeStyle;rounded=0;orthogonalLoop=1;jettySize=auto;html=1;entryX=0.5;entryY=0;entryDx=0;entryDy=0;" edge="1" parent="WIyWlLk6GJQsqaUBKTNV-1" source="c8VAI_UcvX4g3IYW-U81-41" target="c8VAI_UcvX4g3IYW-U81-48">
          <mxGeometry relative="1" as="geometry">
            <Array as="points">
              <mxPoint x="1171" y="1170" />
              <mxPoint x="1555" y="1170" />
            </Array>
          </mxGeometry>
        </mxCell>
        <mxCell id="c8VAI_UcvX4g3IYW-U81-41" value="// 사칙연산 수행 묶기" style="rounded=0;whiteSpace=wrap;html=1;align=left;" vertex="1" parent="WIyWlLk6GJQsqaUBKTNV-1">
          <mxGeometry x="996" y="1070" width="350" height="30" as="geometry" />
        </mxCell>
        <mxCell id="c8VAI_UcvX4g3IYW-U81-42" value="AddOperator.java" style="swimlane;fontStyle=0;align=center;verticalAlign=top;childLayout=stackLayout;horizontal=1;startSize=26;horizontalStack=0;resizeParent=1;resizeLast=0;collapsible=1;marginBottom=0;rounded=0;shadow=0;strokeWidth=1;" vertex="1" parent="WIyWlLk6GJQsqaUBKTNV-1">
          <mxGeometry x="240" y="1250" width="350" height="60" as="geometry">
            <mxRectangle x="340" y="380" width="170" height="26" as="alternateBounds" />
          </mxGeometry>
        </mxCell>
        <mxCell id="c8VAI_UcvX4g3IYW-U81-43" value="덧셈" style="text;align=left;verticalAlign=top;spacingLeft=4;spacingRight=4;overflow=hidden;rotatable=0;points=[[0,0.5],[1,0.5]];portConstraint=eastwest;" vertex="1" parent="c8VAI_UcvX4g3IYW-U81-42">
          <mxGeometry y="26" width="350" height="26" as="geometry" />
        </mxCell>
        <mxCell id="c8VAI_UcvX4g3IYW-U81-44" value="// +" style="rounded=0;whiteSpace=wrap;html=1;align=left;" vertex="1" parent="WIyWlLk6GJQsqaUBKTNV-1">
          <mxGeometry x="240" y="1310" width="350" height="30" as="geometry" />
        </mxCell>
        <mxCell id="c8VAI_UcvX4g3IYW-U81-45" value="ModOperator.java" style="swimlane;fontStyle=0;align=center;verticalAlign=top;childLayout=stackLayout;horizontal=1;startSize=26;horizontalStack=0;resizeParent=1;resizeLast=0;collapsible=1;marginBottom=0;rounded=0;shadow=0;strokeWidth=1;" vertex="1" parent="WIyWlLk6GJQsqaUBKTNV-1">
          <mxGeometry x="1754" y="1250" width="350" height="60" as="geometry">
            <mxRectangle x="340" y="380" width="170" height="26" as="alternateBounds" />
          </mxGeometry>
        </mxCell>
        <mxCell id="c8VAI_UcvX4g3IYW-U81-46" value="나머지" style="text;align=left;verticalAlign=top;spacingLeft=4;spacingRight=4;overflow=hidden;rotatable=0;points=[[0,0.5],[1,0.5]];portConstraint=eastwest;" vertex="1" parent="c8VAI_UcvX4g3IYW-U81-45">
          <mxGeometry y="26" width="350" height="26" as="geometry" />
        </mxCell>
        <mxCell id="c8VAI_UcvX4g3IYW-U81-47" value="// %" style="rounded=0;whiteSpace=wrap;html=1;align=left;" vertex="1" parent="WIyWlLk6GJQsqaUBKTNV-1">
          <mxGeometry x="1754" y="1310" width="350" height="30" as="geometry" />
        </mxCell>
        <mxCell id="c8VAI_UcvX4g3IYW-U81-48" value="SubtractOperator.java" style="swimlane;fontStyle=0;align=center;verticalAlign=top;childLayout=stackLayout;horizontal=1;startSize=26;horizontalStack=0;resizeParent=1;resizeLast=0;collapsible=1;marginBottom=0;rounded=0;shadow=0;strokeWidth=1;" vertex="1" parent="WIyWlLk6GJQsqaUBKTNV-1">
          <mxGeometry x="1380" y="1250" width="350" height="60" as="geometry">
            <mxRectangle x="340" y="380" width="170" height="26" as="alternateBounds" />
          </mxGeometry>
        </mxCell>
        <mxCell id="c8VAI_UcvX4g3IYW-U81-49" value="나눗셈" style="text;align=left;verticalAlign=top;spacingLeft=4;spacingRight=4;overflow=hidden;rotatable=0;points=[[0,0.5],[1,0.5]];portConstraint=eastwest;" vertex="1" parent="c8VAI_UcvX4g3IYW-U81-48">
          <mxGeometry y="26" width="350" height="26" as="geometry" />
        </mxCell>
        <mxCell id="c8VAI_UcvX4g3IYW-U81-50" style="edgeStyle=orthogonalEdgeStyle;rounded=0;orthogonalLoop=1;jettySize=auto;html=1;entryX=0.5;entryY=0;entryDx=0;entryDy=0;" edge="1" parent="WIyWlLk6GJQsqaUBKTNV-1" source="c8VAI_UcvX4g3IYW-U81-51" target="c8VAI_UcvX4g3IYW-U81-60">
          <mxGeometry relative="1" as="geometry" />
        </mxCell>
        <mxCell id="c8VAI_UcvX4g3IYW-U81-51" value="// /" style="rounded=0;whiteSpace=wrap;html=1;align=left;" vertex="1" parent="WIyWlLk6GJQsqaUBKTNV-1">
          <mxGeometry x="1380" y="1310" width="350" height="30" as="geometry" />
        </mxCell>
        <mxCell id="c8VAI_UcvX4g3IYW-U81-52" value="MultiplyOperator.java" style="swimlane;fontStyle=0;align=center;verticalAlign=top;childLayout=stackLayout;horizontal=1;startSize=26;horizontalStack=0;resizeParent=1;resizeLast=0;collapsible=1;marginBottom=0;rounded=0;shadow=0;strokeWidth=1;" vertex="1" parent="WIyWlLk6GJQsqaUBKTNV-1">
          <mxGeometry x="1000" y="1250" width="350" height="60" as="geometry">
            <mxRectangle x="340" y="380" width="170" height="26" as="alternateBounds" />
          </mxGeometry>
        </mxCell>
        <mxCell id="c8VAI_UcvX4g3IYW-U81-53" value="곱셈" style="text;align=left;verticalAlign=top;spacingLeft=4;spacingRight=4;overflow=hidden;rotatable=0;points=[[0,0.5],[1,0.5]];portConstraint=eastwest;" vertex="1" parent="c8VAI_UcvX4g3IYW-U81-52">
          <mxGeometry y="26" width="350" height="26" as="geometry" />
        </mxCell>
        <mxCell id="c8VAI_UcvX4g3IYW-U81-54" value="// *" style="rounded=0;whiteSpace=wrap;html=1;align=left;" vertex="1" parent="WIyWlLk6GJQsqaUBKTNV-1">
          <mxGeometry x="1000" y="1310" width="350" height="30" as="geometry" />
        </mxCell>
        <mxCell id="c8VAI_UcvX4g3IYW-U81-55" value="DivideOperator.java" style="swimlane;fontStyle=0;align=center;verticalAlign=top;childLayout=stackLayout;horizontal=1;startSize=26;horizontalStack=0;resizeParent=1;resizeLast=0;collapsible=1;marginBottom=0;rounded=0;shadow=0;strokeWidth=1;" vertex="1" parent="WIyWlLk6GJQsqaUBKTNV-1">
          <mxGeometry x="620" y="1250" width="350" height="60" as="geometry">
            <mxRectangle x="340" y="380" width="170" height="26" as="alternateBounds" />
          </mxGeometry>
        </mxCell>
        <mxCell id="c8VAI_UcvX4g3IYW-U81-56" value="뺄셈" style="text;align=left;verticalAlign=top;spacingLeft=4;spacingRight=4;overflow=hidden;rotatable=0;points=[[0,0.5],[1,0.5]];portConstraint=eastwest;" vertex="1" parent="c8VAI_UcvX4g3IYW-U81-55">
          <mxGeometry y="26" width="350" height="26" as="geometry" />
        </mxCell>
        <mxCell id="c8VAI_UcvX4g3IYW-U81-57" value="// -" style="rounded=0;whiteSpace=wrap;html=1;align=left;" vertex="1" parent="WIyWlLk6GJQsqaUBKTNV-1">
          <mxGeometry x="620" y="1310" width="350" height="30" as="geometry" />
        </mxCell>
        <mxCell id="c8VAI_UcvX4g3IYW-U81-58" style="edgeStyle=orthogonalEdgeStyle;rounded=0;orthogonalLoop=1;jettySize=auto;html=1;" edge="1" parent="WIyWlLk6GJQsqaUBKTNV-1" source="c8VAI_UcvX4g3IYW-U81-41">
          <mxGeometry relative="1" as="geometry">
            <mxPoint x="780" y="1250" as="targetPoint" />
            <Array as="points">
              <mxPoint x="1171" y="1170" />
              <mxPoint x="780" y="1170" />
            </Array>
          </mxGeometry>
        </mxCell>
        <mxCell id="c8VAI_UcvX4g3IYW-U81-59" style="edgeStyle=orthogonalEdgeStyle;rounded=0;orthogonalLoop=1;jettySize=auto;html=1;entryX=0.538;entryY=0.011;entryDx=0;entryDy=0;entryPerimeter=0;" edge="1" parent="WIyWlLk6GJQsqaUBKTNV-1" source="c8VAI_UcvX4g3IYW-U81-41">
          <mxGeometry relative="1" as="geometry">
            <mxPoint x="1938.3000000000002" y="1250.6600000000003" as="targetPoint" />
            <Array as="points">
              <mxPoint x="1171" y="1170" />
              <mxPoint x="1938" y="1170" />
            </Array>
          </mxGeometry>
        </mxCell>
        <mxCell id="c8VAI_UcvX4g3IYW-U81-60" value="HandleArithmeticException.java" style="swimlane;fontStyle=0;align=center;verticalAlign=top;childLayout=stackLayout;horizontal=1;startSize=26;horizontalStack=0;resizeParent=1;resizeLast=0;collapsible=1;marginBottom=0;rounded=0;shadow=0;strokeWidth=1;" vertex="1" parent="WIyWlLk6GJQsqaUBKTNV-1">
          <mxGeometry x="1380" y="1410" width="350" height="60" as="geometry">
            <mxRectangle x="340" y="380" width="170" height="26" as="alternateBounds" />
          </mxGeometry>
        </mxCell>
        <mxCell id="c8VAI_UcvX4g3IYW-U81-61" value="나눗셈 분모 0이 들어올시" style="text;align=left;verticalAlign=top;spacingLeft=4;spacingRight=4;overflow=hidden;rotatable=0;points=[[0,0.5],[1,0.5]];portConstraint=eastwest;" vertex="1" parent="c8VAI_UcvX4g3IYW-U81-60">
          <mxGeometry y="26" width="350" height="26" as="geometry" />
        </mxCell>
        <mxCell id="c8VAI_UcvX4g3IYW-U81-62" value="// 나눗셈 exception 처리" style="rounded=0;whiteSpace=wrap;html=1;align=left;" vertex="1" parent="WIyWlLk6GJQsqaUBKTNV-1">
          <mxGeometry x="1380" y="1470" width="350" height="30" as="geometry" />
        </mxCell>
        <mxCell id="c8VAI_UcvX4g3IYW-U81-63" value="" style="endArrow=classic;html=1;rounded=0;" edge="1" parent="WIyWlLk6GJQsqaUBKTNV-1">
          <mxGeometry width="50" height="50" relative="1" as="geometry">
            <mxPoint x="1143" y="660" as="sourcePoint" />
            <mxPoint x="1143" y="620" as="targetPoint" />
          </mxGeometry>
        </mxCell>
        <mxCell id="c8VAI_UcvX4g3IYW-U81-64" value="" style="endArrow=classic;html=1;rounded=0;entryX=0.5;entryY=1;entryDx=0;entryDy=0;" edge="1" parent="WIyWlLk6GJQsqaUBKTNV-1">
          <mxGeometry width="50" height="50" relative="1" as="geometry">
            <mxPoint x="951" y="960" as="sourcePoint" />
            <mxPoint x="952" y="920" as="targetPoint" />
          </mxGeometry>
        </mxCell>
        <mxCell id="c8VAI_UcvX4g3IYW-U81-65" value="" style="endArrow=classic;html=1;rounded=0;" edge="1" parent="WIyWlLk6GJQsqaUBKTNV-1">
          <mxGeometry width="50" height="50" relative="1" as="geometry">
            <mxPoint x="1171" y="1250" as="sourcePoint" />
            <mxPoint x="1171" y="1100" as="targetPoint" />
          </mxGeometry>
        </mxCell>
        <mxCell id="c8VAI_UcvX4g3IYW-U81-66" value="" style="endArrow=classic;html=1;rounded=0;" edge="1" parent="WIyWlLk6GJQsqaUBKTNV-1">
          <mxGeometry width="50" height="50" relative="1" as="geometry">
            <mxPoint x="415" y="1250" as="sourcePoint" />
            <mxPoint x="415" y="1170" as="targetPoint" />
          </mxGeometry>
        </mxCell>
        <mxCell id="c8VAI_UcvX4g3IYW-U81-67" value="" style="endArrow=classic;html=1;rounded=0;" edge="1" parent="WIyWlLk6GJQsqaUBKTNV-1">
          <mxGeometry width="50" height="50" relative="1" as="geometry">
            <mxPoint x="780" y="1250" as="sourcePoint" />
            <mxPoint x="780" y="1170" as="targetPoint" />
          </mxGeometry>
        </mxCell>
        <mxCell id="c8VAI_UcvX4g3IYW-U81-68" value="" style="endArrow=classic;html=1;rounded=0;" edge="1" parent="WIyWlLk6GJQsqaUBKTNV-1">
          <mxGeometry width="50" height="50" relative="1" as="geometry">
            <mxPoint x="1555" y="1248" as="sourcePoint" />
            <mxPoint x="1555" y="1168" as="targetPoint" />
          </mxGeometry>
        </mxCell>
        <mxCell id="c8VAI_UcvX4g3IYW-U81-69" value="" style="endArrow=classic;html=1;rounded=0;" edge="1" parent="WIyWlLk6GJQsqaUBKTNV-1">
          <mxGeometry width="50" height="50" relative="1" as="geometry">
            <mxPoint x="1938" y="1248" as="sourcePoint" />
            <mxPoint x="1938" y="1168" as="targetPoint" />
          </mxGeometry>
        </mxCell>
        <mxCell id="c8VAI_UcvX4g3IYW-U81-70" value="Calculator.java" style="swimlane;fontStyle=0;align=center;verticalAlign=top;childLayout=stackLayout;horizontal=1;startSize=26;horizontalStack=0;resizeParent=1;resizeLast=0;collapsible=1;marginBottom=0;rounded=0;shadow=0;strokeWidth=1;" vertex="1" parent="WIyWlLk6GJQsqaUBKTNV-1">
          <mxGeometry x="970" y="650" width="350" height="60" as="geometry">
            <mxRectangle x="340" y="380" width="170" height="26" as="alternateBounds" />
          </mxGeometry>
        </mxCell>
        <mxCell id="c8VAI_UcvX4g3IYW-U81-71" value="사칙연산,원의넓이 수행후 데이터 저장 및 CRUD 메서드 " style="text;align=left;verticalAlign=top;spacingLeft=4;spacingRight=4;overflow=hidden;rotatable=0;points=[[0,0.5],[1,0.5]];portConstraint=eastwest;" vertex="1" parent="c8VAI_UcvX4g3IYW-U81-70">
          <mxGeometry y="26" width="350" height="26" as="geometry" />
        </mxCell>
        <mxCell id="c8VAI_UcvX4g3IYW-U81-72" value="// 데이터 저장 및 CRUD 메서드 수행" style="rounded=0;whiteSpace=wrap;html=1;align=left;" vertex="1" parent="WIyWlLk6GJQsqaUBKTNV-1">
          <mxGeometry x="970" y="710" width="350" height="30" as="geometry" />
        </mxCell>
        <mxCell id="c8VAI_UcvX4g3IYW-U81-73" style="edgeStyle=orthogonalEdgeStyle;rounded=0;orthogonalLoop=1;jettySize=auto;html=1;entryX=0.413;entryY=0.034;entryDx=0;entryDy=0;entryPerimeter=0;" edge="1" parent="WIyWlLk6GJQsqaUBKTNV-1" source="c8VAI_UcvX4g3IYW-U81-72" target="c8VAI_UcvX4g3IYW-U81-28">
          <mxGeometry relative="1" as="geometry" />
        </mxCell>
        <mxCell id="c8VAI_UcvX4g3IYW-U81-74" style="edgeStyle=orthogonalEdgeStyle;rounded=0;orthogonalLoop=1;jettySize=auto;html=1;entryX=0.525;entryY=0.05;entryDx=0;entryDy=0;entryPerimeter=0;" edge="1" parent="WIyWlLk6GJQsqaUBKTNV-1" source="c8VAI_UcvX4g3IYW-U81-72" target="c8VAI_UcvX4g3IYW-U81-32">
          <mxGeometry relative="1" as="geometry" />
        </mxCell>
        <mxCell id="c8VAI_UcvX4g3IYW-U81-75" value="" style="endArrow=classic;html=1;rounded=0;" edge="1" parent="WIyWlLk6GJQsqaUBKTNV-1">
          <mxGeometry width="50" height="50" relative="1" as="geometry">
            <mxPoint x="1360" y="830" as="sourcePoint" />
            <mxPoint x="1360" y="780" as="targetPoint" />
          </mxGeometry>
        </mxCell>
        <mxCell id="c8VAI_UcvX4g3IYW-U81-76" value="" style="endArrow=classic;html=1;rounded=0;" edge="1" parent="WIyWlLk6GJQsqaUBKTNV-1">
          <mxGeometry width="50" height="50" relative="1" as="geometry">
            <mxPoint x="920" y="830" as="sourcePoint" />
            <mxPoint x="920" y="780" as="targetPoint" />
          </mxGeometry>
        </mxCell>
        <mxCell id="c8VAI_UcvX4g3IYW-U81-77" value="" style="endArrow=classic;html=1;rounded=0;" edge="1" parent="WIyWlLk6GJQsqaUBKTNV-1">
          <mxGeometry width="50" height="50" relative="1" as="geometry">
            <mxPoint x="1145" y="780" as="sourcePoint" />
            <mxPoint x="1144.72" y="740" as="targetPoint" />
          </mxGeometry>
        </mxCell>
      </root>
    </mxGraphModel>
  </diagram>
</mxfile>
